<svg height="auto" viewBox="0 0 2000 550" xmlns="http://www.w3.org/2000/svg"><path d="m0 377.373 20-253.175L40 319.97l20-158.673 20 257.937 20-343.816 20 340.79 20-264.624 20-21.283 20-40.403 20 24.085 20 223.937 20-38.373 20-3.03L280 194.4l20-81.413 20 121.387 20 54.868 20-24.961 20-54.949 20 66.788 20 28.202 20-171.104 20 240.316 20 5.885 20-163.503 20-119.065 20 191.941 20 63.039 20 49.458 20-54.288 20-8.711 20-157.32 20 247.252 20-206.934 20-75.634 20 29.837 20 173.865 20-31.187 20-68.4 20-88.22 20 242.014 20-4.385 20-147.3 20 131.148 20-223.906 20-41.245 20 104.458 20 72.949 20 70.392 20-96.257 20 121.343 20 10.55 20-44.307 20-13.454 20-277.74 20 329.273 20-314.291 20 184.576 20-134.717 20 39.687 20 219.9 20 26.645 20-173.15 20 175.337 20 1.096 20-265.424 20 265.383 20-282.135 20 165.615 20-165.215 20-73.9 20 325.179 20 24.67 20-279.425 20 301.98 20-29.802 20-149.68 20-39.09 20-23.649 20 222.86 20-205.479 20 91.584 20-132.82 20 190.735 20 8.456 20-192.42 20 8.862 20-91.997 20 56.3 20 249.505 20-326.15 20 250.537 20-97.24 20-75.25 20-12.702 20-1.942 20 26.368 20 88.565 20-168.061 20 97.888 20-56.729 20 171.602L2000 550H0Z" fill="#7000ff1a"/><path d="m0 377.373 20-253.175L40 319.97l20-158.673 20 257.937 20-343.816 20 340.79 20-264.624 20-21.283 20-40.403 20 24.085 20 223.937 20-38.373 20-3.03L280 194.4l20-81.413 20 121.387 20 54.868 20-24.961 20-54.949 20 66.788 20 28.202 20-171.104 20 240.316 20 5.885 20-163.503 20-119.065 20 191.941 20 63.039 20 49.458 20-54.288 20-8.711 20-157.32 20 247.252 20-206.934 20-75.634 20 29.837 20 173.865 20-31.187 20-68.4 20-88.22 20 242.014 20-4.385 20-147.3 20 131.148 20-223.906 20-41.245 20 104.458 20 72.949 20 70.392 20-96.257 20 121.343 20 10.55 20-44.307 20-13.454 20-277.74 20 329.273 20-314.291 20 184.576 20-134.717 20 39.687 20 219.9 20 26.645 20-173.15 20 175.337 20 1.096 20-265.424 20 265.383 20-282.135 20 165.615 20-165.215 20-73.9 20 325.179 20 24.67 20-279.425 20 301.98 20-29.802 20-149.68 20-39.09 20-23.649 20 222.86 20-205.479 20 91.584 20-132.82 20 190.735 20 8.456 20-192.42 20 8.862 20-91.997 20 56.3 20 249.505 20-326.15 20 250.537 20-97.24 20-75.25 20-12.702 20-1.942 20 26.368 20 88.565 20-168.061 20 97.888 20-56.729 20 171.602" fill="none" stroke="#7000ff" stroke-width="7"/>

</svg>